<mxfile host="app.diagrams.net" modified="2021-06-21T12:22:13.485Z" agent="5.0 (Windows NT 10.0; Win64; x64) AppleWebKit/537.36 (KHTML, like Gecko) Chrome/90.0.4430.212 Safari/537.36" etag="twngRGcw0jsvZHziM1o7" version="14.8.0" type="github">
  <diagram id="DkxFbNwFvWrarqT2UaTK" name="Page-1">
    <mxGraphModel dx="1038" dy="548" grid="1" gridSize="10" guides="1" tooltips="1" connect="1" arrows="1" fold="1" page="1" pageScale="1" pageWidth="850" pageHeight="1100" background="#F1FAEE" math="0" shadow="0">
      <root>
        <mxCell id="0" />
        <mxCell id="1" parent="0" />
        <mxCell id="r5Sn9v23Aq8rW__LxeA--3" value="" style="rounded=0;whiteSpace=wrap;html=1;strokeColor=#6c8ebf;fillColor=#dae8fc;" vertex="1" parent="1">
          <mxGeometry x="140" y="190" width="120" height="40" as="geometry" />
        </mxCell>
        <mxCell id="r5Sn9v23Aq8rW__LxeA--4" value="" style="rounded=0;whiteSpace=wrap;html=1;fillColor=#dae8fc;strokeColor=#6c8ebf;" vertex="1" parent="1">
          <mxGeometry x="140" y="140" width="120" height="40" as="geometry" />
        </mxCell>
        <mxCell id="r5Sn9v23Aq8rW__LxeA--6" value="" style="html=1;points=[];perimeter=orthogonalPerimeter;rounded=0;sketch=0;fontColor=#1D3557;strokeColor=#457B9D;fillColor=#A8DADC;" vertex="1" parent="1">
          <mxGeometry x="150" y="180" width="10" height="10" as="geometry" />
        </mxCell>
        <mxCell id="r5Sn9v23Aq8rW__LxeA--7" value="" style="html=1;points=[];perimeter=orthogonalPerimeter;rounded=0;sketch=0;fontColor=#1D3557;strokeColor=#457B9D;fillColor=#A8DADC;" vertex="1" parent="1">
          <mxGeometry x="230" y="180" width="10" height="10" as="geometry" />
        </mxCell>
        <mxCell id="r5Sn9v23Aq8rW__LxeA--8" value="" style="rounded=0;whiteSpace=wrap;html=1;sketch=0;fillColor=#dae8fc;strokeColor=#6c8ebf;" vertex="1" parent="1">
          <mxGeometry x="140" y="240" width="120" height="40" as="geometry" />
        </mxCell>
        <mxCell id="r5Sn9v23Aq8rW__LxeA--9" value="" style="html=1;points=[];perimeter=orthogonalPerimeter;rounded=0;sketch=0;fontColor=#1D3557;strokeColor=#457B9D;fillColor=#A8DADC;" vertex="1" parent="1">
          <mxGeometry x="150" y="230" width="10" height="10" as="geometry" />
        </mxCell>
        <mxCell id="r5Sn9v23Aq8rW__LxeA--10" value="" style="html=1;points=[];perimeter=orthogonalPerimeter;rounded=0;sketch=0;fontColor=#1D3557;strokeColor=#457B9D;fillColor=#A8DADC;" vertex="1" parent="1">
          <mxGeometry x="230" y="230" width="10" height="10" as="geometry" />
        </mxCell>
        <mxCell id="r5Sn9v23Aq8rW__LxeA--12" value="" style="html=1;points=[];perimeter=orthogonalPerimeter;rounded=0;sketch=0;direction=south;" vertex="1" parent="1">
          <mxGeometry x="150" y="150" width="30" height="5" as="geometry" />
        </mxCell>
        <mxCell id="r5Sn9v23Aq8rW__LxeA--13" value="" style="html=1;points=[];perimeter=orthogonalPerimeter;rounded=0;sketch=0;direction=south;" vertex="1" parent="1">
          <mxGeometry x="150" y="200" width="30" height="5" as="geometry" />
        </mxCell>
        <mxCell id="r5Sn9v23Aq8rW__LxeA--15" value="" style="html=1;points=[];perimeter=orthogonalPerimeter;rounded=0;sketch=0;direction=south;" vertex="1" parent="1">
          <mxGeometry x="150" y="250" width="30" height="5" as="geometry" />
        </mxCell>
        <mxCell id="r5Sn9v23Aq8rW__LxeA--16" value="" style="ellipse;whiteSpace=wrap;html=1;aspect=fixed;rounded=0;sketch=0;" vertex="1" parent="1">
          <mxGeometry x="230" y="147.5" width="10" height="10" as="geometry" />
        </mxCell>
        <mxCell id="r5Sn9v23Aq8rW__LxeA--17" value="" style="ellipse;whiteSpace=wrap;html=1;aspect=fixed;rounded=0;sketch=0;" vertex="1" parent="1">
          <mxGeometry x="230" y="197.5" width="10" height="10" as="geometry" />
        </mxCell>
        <mxCell id="r5Sn9v23Aq8rW__LxeA--18" value="" style="ellipse;whiteSpace=wrap;html=1;aspect=fixed;rounded=0;sketch=0;" vertex="1" parent="1">
          <mxGeometry x="230" y="247.5" width="10" height="10" as="geometry" />
        </mxCell>
        <mxCell id="r5Sn9v23Aq8rW__LxeA--19" value="&lt;font style=&quot;font-size: 18px&quot; color=&quot;#000000&quot;&gt;Servers&lt;/font&gt;" style="text;html=1;strokeColor=none;fillColor=none;align=center;verticalAlign=middle;whiteSpace=wrap;rounded=0;sketch=0;fontColor=#1D3557;" vertex="1" parent="1">
          <mxGeometry x="180" y="290" width="40" height="20" as="geometry" />
        </mxCell>
        <mxCell id="r5Sn9v23Aq8rW__LxeA--20" value="" style="rounded=1;whiteSpace=wrap;html=1;sketch=0;" vertex="1" parent="1">
          <mxGeometry x="360" y="140" width="120" height="90" as="geometry" />
        </mxCell>
        <mxCell id="r5Sn9v23Aq8rW__LxeA--21" value="" style="rounded=0;whiteSpace=wrap;html=1;sketch=0;strokeColor=#6c8ebf;fillColor=#dae8fc;" vertex="1" parent="1">
          <mxGeometry x="360" y="250" width="120" height="20" as="geometry" />
        </mxCell>
        <mxCell id="r5Sn9v23Aq8rW__LxeA--22" value="" style="shape=trapezoid;perimeter=trapezoidPerimeter;whiteSpace=wrap;html=1;fixedSize=1;rounded=0;sketch=0;strokeColor=#6c8ebf;fillColor=#dae8fc;" vertex="1" parent="1">
          <mxGeometry x="395" y="230" width="50" height="10" as="geometry" />
        </mxCell>
        <mxCell id="r5Sn9v23Aq8rW__LxeA--29" value="" style="rounded=1;whiteSpace=wrap;html=1;sketch=0;" vertex="1" parent="1">
          <mxGeometry x="380" y="150" width="80" height="55" as="geometry" />
        </mxCell>
        <mxCell id="r5Sn9v23Aq8rW__LxeA--33" value="&lt;font style=&quot;font-size: 18px&quot; color=&quot;#000000&quot;&gt;Virtual Machines&lt;/font&gt;" style="text;html=1;strokeColor=none;fillColor=none;align=center;verticalAlign=middle;whiteSpace=wrap;rounded=0;sketch=0;fontColor=#1D3557;" vertex="1" parent="1">
          <mxGeometry x="405" y="290" width="40" height="20" as="geometry" />
        </mxCell>
        <mxCell id="r5Sn9v23Aq8rW__LxeA--34" value="" style="rounded=1;whiteSpace=wrap;html=1;sketch=0;strokeColor=#6c8ebf;fillColor=#dae8fc;direction=south;" vertex="1" parent="1">
          <mxGeometry x="569.59" y="155" width="40" height="70" as="geometry" />
        </mxCell>
        <mxCell id="r5Sn9v23Aq8rW__LxeA--37" value="" style="whiteSpace=wrap;html=1;aspect=fixed;rounded=0;sketch=0;" vertex="1" parent="1">
          <mxGeometry x="574.59" y="167.5" width="30" height="30" as="geometry" />
        </mxCell>
        <mxCell id="r5Sn9v23Aq8rW__LxeA--38" value="" style="ellipse;whiteSpace=wrap;html=1;aspect=fixed;rounded=0;sketch=0;" vertex="1" parent="1">
          <mxGeometry x="584.59" y="207.5" width="10" height="10" as="geometry" />
        </mxCell>
        <mxCell id="r5Sn9v23Aq8rW__LxeA--40" value="" style="shape=image;html=1;verticalLabelPosition=bottom;verticalAlign=top;imageAspect=1;aspect=fixed;image=img/clipart/Gear_128x128.png;rounded=0;sketch=0;fontColor=#1D3557;strokeColor=#457B9D;fillColor=#FFB366;" vertex="1" parent="1">
          <mxGeometry x="580" y="173.75" width="19.18" height="22.5" as="geometry" />
        </mxCell>
        <mxCell id="r5Sn9v23Aq8rW__LxeA--46" value="&lt;font color=&quot;#000000&quot; style=&quot;font-size: 18px&quot;&gt;PCs&lt;/font&gt;" style="text;html=1;strokeColor=none;fillColor=none;align=center;verticalAlign=middle;whiteSpace=wrap;rounded=0;sketch=0;fontColor=#1D3557;" vertex="1" parent="1">
          <mxGeometry x="574.59" y="290" width="40" height="20" as="geometry" />
        </mxCell>
        <mxCell id="r5Sn9v23Aq8rW__LxeA--54" value="" style="rounded=1;whiteSpace=wrap;html=1;sketch=0;strokeColor=#6c8ebf;fillColor=#dae8fc;direction=south;" vertex="1" parent="1">
          <mxGeometry x="730" y="145" width="50" height="75" as="geometry" />
        </mxCell>
        <mxCell id="r5Sn9v23Aq8rW__LxeA--55" value="" style="rounded=1;whiteSpace=wrap;html=1;sketch=0;strokeColor=#6c8ebf;fillColor=#dae8fc;" vertex="1" parent="1">
          <mxGeometry x="732.5" y="200" width="45" height="17.5" as="geometry" />
        </mxCell>
        <mxCell id="r5Sn9v23Aq8rW__LxeA--57" value="" style="ellipse;whiteSpace=wrap;html=1;aspect=fixed;rounded=0;sketch=0;" vertex="1" parent="1">
          <mxGeometry x="760" y="203.75" width="10" height="10" as="geometry" />
        </mxCell>
        <mxCell id="r5Sn9v23Aq8rW__LxeA--58" value="&lt;font color=&quot;#000000&quot; style=&quot;font-size: 18px&quot;&gt;Backup to local storage&lt;/font&gt;" style="text;html=1;strokeColor=none;fillColor=none;align=center;verticalAlign=middle;whiteSpace=wrap;rounded=0;sketch=0;fontColor=#FFFFFF;" vertex="1" parent="1">
          <mxGeometry x="740" y="280" width="40" height="20" as="geometry" />
        </mxCell>
        <mxCell id="r5Sn9v23Aq8rW__LxeA--59" value="" style="rounded=0;whiteSpace=wrap;html=1;sketch=0;" vertex="1" parent="1">
          <mxGeometry x="120" y="120" width="520" height="210" as="geometry" />
        </mxCell>
        <mxCell id="r5Sn9v23Aq8rW__LxeA--60" value="" style="shape=image;verticalLabelPosition=bottom;labelBackgroundColor=#ffffff;verticalAlign=top;aspect=fixed;imageAspect=0;image=data:image/png,iVBORw0KGgoAAAANSUhEUgAAAqoAAAEeCAYAAABCNjeUAAAgAElEQVR4Ae29CXhV1bnHfVptq733tvfWCrRfb7mt/bSftthWhtYqoAJOIBVEVBC1gBMiMrQKERFCRYUy1glRRFBmSQWZoibMyBQIQ0ISEghDyEhCICLT+z3vPmed7Kzsfc5aJ2ef7HP2P8+zn332ztrDetf/fd/fXmsPvqqzFaQ6lZ48TpVnypXL834PHMzTKq97jPKaUio/XeroMVAP9TZHe6jbCrpStxV0pW4r6ErdVtCVuq2gK3VbQVfqtlLRlY/B0MkpNz/H0f07ee7mfaMezurEbGuV32gPtIeKTnTLQFfQla5mVMpDV9CVik50y3hFVz7uIVWd2IgVNaXK5Xm/eQW5WuV1j1F+uoRKq4sdPQbqod7maA91W0FX6raCrtRtBV2p2wq6UrcVdKVuK+hK3VYquvJxt6vqxBDJO1Utr9KlK+9L9xjoYkd7yBqyWoau4OdWupDX4VYlNZ0g7iLuyr5jtYy4q+ZPbDtdW/E2XolXAFVFUPeKIORgo+s8SGBIYLKGrJahKyQwK13I6xB31XSCuIu4K/uO1XK8xl2AKkA1ZA95vApbdlLUQy3hsd10bcXbACjU7AugAFDIsclqWdcHoSvoykpH8rp41RVAFaAKULXQAAI/Ar8c5K2W4zXwy3VBPdQuNNhuurbibXAhp2ZfxF3EXTk28TJA1QJSrAyFQINAY6UL8zokMDWNsM10bYUEhgRm9jW739CVcz7INkceVLMv4lV04xVAFaCKHlULDSDQRDfQyGABoFBLeGw3XVsBKNS1Cz9XtxV0pW4r6ErdViq6AqhaQAobTp5wJVnfJrKNeBkOGl0HlW2sCy1oD7SHrCGrZehKLb6x7XRtxdsgf6jZF/EK8coqPgFULaDUylAINAg0Vrowr0MCU9MI20zXVkhgSGBmX7P7DV0554Nsc+RBNfsiXkU3XgFUAar1eo/NSQCBXy0wsc10bYXArx7MEPjVbQVdqdsKulK3FXSlbivoSt1WKroCqAJUAaoWGkCgiW6g4WBknnShHu2B9jDrx+43dFXXz+zsxOt1bcXboEdVzb6IV9GNVwBVKYHaOTYcFA5qpw2xHoFfTSNsL11bIfBHN/ALzYo52sM57bKNkT/U7As/h5+LmGSe+/bnZpPqtC97n3JZsc/dezK1ttE9RnZOFvEkjqcy1z0G7xP1UNMJ2kPNTkKn0JWavaArNTtBV3o5CrqCroTPhJrrMgN0FV1doUcVPap1hmTNVzH8Gz0taj0BkdiKt0FPi5p90dOCnhY5NlktI16p+RPiVV7IvCdrC7pqXF0BVAGqIR0WDtq4DoqA6bc/QBWgKvuC1TLiFeKVlS7kdeggUNOJW+IuQBWgClC10IBbHFQOsEjEagGW7aZrK94GCUzNvvAPXDjIsclqWdcHoSvoykpHAFULSLEyFBIYEpiVLszrdIMybwtdQVdmDVn9hq7UNMK207UVwAhgZOVz8jroyjkfZFuHy4MAVYAqelQtNIAEhgQmJyurZSSwxk1gcpugPdAesiaslsOBkbwNdNW4ugKoWkCKLFJehrDVhArAA+BZ+Y+8DoFfzZ/Ybrq2QrxS90HEK3VbQVfqtoKu1G2loiuAKkAVPaoWGkCgiW6g4WBknnThC+2B9jDrx+43dFXXz+zsxOt1bcXboMNGzb6IV9GNVwBVKYHaOTYcFA5qpw2xHoFfTSNsL11bIfBHN/ALzYo52sM57bKNkT/U7As/h5+LmGSeA1QBqnV6uszi4N9IYGoBNhJb8TZIYGr2RQJDApNjk9Uy4pWaPyFe4T2qVv4jr3NL3AWoAlQBqhYacIuDyoEDiRiJWNaE1TIugNR0Aj/HBZCV/8jrEHfV/Intpmsr3iZcvAKoWkCKLFIVQ8rb6DYWAiYCpqwhq2XoqnEDptwmaA+0h6wJq+VwiVjeBrqCrmRNWC17RVc+dggnp9z8HEf37+S5m/eNejirE7OtVX6jPdAeKjrRLQNdQVe6mlEpD11BVyo60S3jFV35Ks+Uk+rERqyoKVUuz/vNK8jVKq97jPLTJVRaXezoMVAP9TZHe6jbCrpStxV0pW4r6ErdVtCVuq2gK3VbQVfqtlLRFYb+MfSPe1QtNIBbMXArhtVQm7yOL6w50Mrr7ZahK3VbsQ29MrQp6wW6wtC/rAmrZa/4B0DVAlK8LAi57giYCJiyJqyWvRIw5brDP+AfsiasluEfajrBhRwu5Kz8B6AKUA3ZG4RErBZg2bl0bcXbIIGp2RcJDAnMKoHJ63R9ELqCrmQNWS1DV2pxmm2nayveJlweBKgCVAGqFhpAAkMCs0pY8jrdoAxdQVeyhqyWoavGBSO5TdAejdseAFULSJFFysvhiF/eBsJuXGGjPfz2BxgBjGRfsFpGvEK8stKFvA55UE0niLvRjbsAVYAqelQtNIBAE91AIyc8gJFawmO76dqKtwFQqNkXfg4/l2OT1bKuD0JX0dUVQNUCUqyEisCPwG+lC/M63WDG20JX0JVZQ1a/oSs1jbDtdG0FoIguUMj6RXs4p122tVfyB0AVoIoeVQsNIIEhgclJ12oZiRiJ2EoX8jqvAIVcb/gH/EPWhNVyOP8AqFpASiSGlLeBg8JBZU1YLYdzUHkb6Aq6kjVhtQxdqekEF6S4ILXyH3kd4q6aP7HddG3F24SLVwBVgCp6VC00gASGBCYnK6tl3aAMXUFXVjqS10FXjQtGaA+//d0Sr3wVNWWkOrHz8KfBVMtzOf6Eqk553WOUnfJ/QtXJY6Ae6m2O9lC3FXSlbivoSt1W0JW6raArdVtBV+q2gq7UbaWiK1/56VJSnRgiS6uLlcvzfvPyc7XK6x5jw94D9MzENEywQdQ1MGjKGke1Gwv/YH8t0/RZXR/0aj0OHs+nt997kx7t+wi1at2SmjRpQpdeein5fD5MCWaD733ve/Sz//0ZtbulLQ18bgDN/2SuVmxwOg/Cz93FJWiP6LZH3A/9b8zKpyFT19KXu8oxwQZR00DqjlJiUJWHgEItM+DpfPed9xXu3hz5eLrHcMvQTSLVY/WaldTzofsNGP3v//5vuvfee2ns2LE0d+5cSk1NpbS0NEwJZoMVK1bQBx98QC+88ALdcsstRttf2eRKem7Ys7Qvf3fYOAE/VxvKR7zCrTFyruDlhAHVnOPnCRNsEC0NAFQRMOWAyUAiAPWee+6hlJQUwp83LVBZWUlvv/023XDDHwxo/XvS30LCKkAVoCrHE3lZtxOCt/eKrgCqAFwAvoUGAKoAVXMimfHhdPqvH/wXtW3bltLT071JZ6i1pQW4p/VnP/sZ/f4Pv6M1m7+0BFavAIXZZ/i3LnyhRxVxV9YQLwNULSAlWr1y2E/89vACVBEwRcAcOTrJ6DUbPXq0JahgJSzAPawPPfQQffe736WPFs2uB6sAVfSoinhiN9eFet6PV3QFUAWookfVQgMAVYAqJ4LhI583IHXOnDmgMVggrAWGDx9u6EWGVa8AhQxhuvCFHlXEXVlDvAxQtYAU9ITGb09otNoOoIqAOeXNSQZ0zJ8/PyygoAAsICzAsMo9q+bbAACq6FG1AjDzOl2o5229oiuAKkAVPaoWGgCoehtU129dY0DqP//5T8EfmMMCyhbg2wD4nlUBIl4BClFfMdeFL/SoejvuCt3Ic4CqBaREq1cO+4nfnlmAqrcD5i0dbqHu3bsrgwkKwgJmC1RVVdH//u//0t9GDDNgFaCKHlUZvuRlXajn7b2iK4AqQNV1PaqrN2bRiDH/pJ4P96ceD/2VhgxPpsUrN8f0PAGq3gXV9+fMMHpT9+/fb2YP/IYFtCwwa9YsQ0d7D2R6BigaCl/oUfVu3JW1Y14GqAJUYwqAoXqZs46coQf6PG4E92uu+TU98MAD1Lt3b2rZspWxrsMd99CXW3Jjcr4AVe8GzDZ/akPPPvusFpSgMCxgZYGWLW+gQUMHAlTPokfVDF5Wv9Gjaq8RgCpANSbgFwpQ+X+ZB6upZesb6dprr6Ply5fXi/nbtm2jTp1up6bNfkrL0nY6fs4AVW+C6qIli/y9YHv31tMgVsACuhZ455136MdX/higClAN3q9sBam8DqAaAlTZOE5Oufk5ju5/w548Gjx1rRa4DBz2Erl1Cgd0ifr/rvf1ot///g9UUVERMhf07NmTWvyupVZ7R2IzAapO+gbv22n/cPr8xf4TpR5PPPkE/fmmP4fUoJP/rK6uNi7UJk+eTC+//DKNGjUKU4Q2GDNmDL311lu0fv16J5ss5L75XlWfz0cz3p/haB4Ufuj0PFH8HPVwlvt0dRiuPXz8bXLViQ9eUVOqXJ73m1eQq1Ve9xgb9x3QBlUGnXbt2rtu+v73/8NxAIsE2pzeZt6na41gvmHDhpBBn//JIPuDH/6Qxrz+pqO2EqCq6htcTle7sfCP8tMlVFpd7KgPJlI9fve73xEDTqz/GKb4VheGmksvvZRatGhB7dq1o/bt22OK0AY333wzXX311YZNr7jiCho8eDAVFhbGumnp1ttupf6P93PUB+Hn7uIStEd028OTQ/8MquPHj495wAp1wGXLlpFXQfWxJwfTrbfeFso8df7HCefP7W6LCajaDdNYrWdQZWiz+p/dOq88tSnXX9dWsXjI4sSZMvrWt75Fq1atqqM3pxcGDhxowFS3bt1o6dKldP78eacP6an9l5WV0YwZM6h169b0ne98h6ZOnRrT+o8YMYL+dOOftOKCG/2DfRjxyn542hzjYhGvvNQeANWYhiz7g3kZVG9seyslJSXZG0f6z4IFC+h/fnQFQFXhvi8ETPULh+17txrAGKtet9OnT1OHDh3oF7/4BX322WeSyrHohAWmTJlitPGgQYOc2L3lPvnp/5/85CcAVcSrkBrQvTgBqNoIyo2G3JiVT0M071FFj6q73m/6h1Z/pFdeecUyyFut5IetLrvscoCqjZ/iyt7f66Ebr1alrzAg5uzZs1ayi/q6O++8k1q2bElHjx6N+r6xQ3sLrF692uhZ1bk4tt9b+P9wD/13vvudkJBi9ln+ratdXJCqX5B6CfASRVfoUQ0fZ2JSwss9qnd17UH9+vVTtvO0adPoql9dA1AFqIZM/rrJ/tOVS+iSSy5R1mFDCr700kv04x//mPLz8xuyG2wboQUWLfK/3YHjrtN/a9b4v3LGt5bI4GC3rKtdgCpA1U5L5vXxqitPg2paWhq5ZfIyqI5+7Q1q1uwnyvmiQ4eO1OvRpwCqANWQiV83KMcKVAsKCoyeWx4Sxl/jWeDpp5+mVq1aOX4CAFV1iIxH4M4+epR2FhTWmbbnHaTtuQfrrJPLyMvb9ufTzvxDFtscpp0FgSm/kHaapjVb99ZZ5v8dKCmyjYu6MdEt7eFZUOWna902efVhqr2Ha+jKJs2M1/CEyxoff/yx0W4pqdsAqgBV24DMvQi6QTlWoMoP19xwww3hpI7/O2yBQ4cOGbHE6fuDAaqJB6r/3pBF4+Z8Rc9OTqdnJqa5bho6bS2Nn7uV1u45UCdG6sZEgKpNktU1ZCT3qDr9uiXsX/8e2IlvzTGSxqRJk2zT0+LFi42nsvkduE7bWLyeyjxsEu63rnZ5f3iK1j1P0cYKVH/961/ThAkTbHWOf8TOAl27dqXHH3/c0QMCVBMHVPcfO0oT5m6jof9aRx9/WUCpGWWUUVDjeD7SyXdb86ppxZbj9OHqAwZAv/fZLjpeXWoAq26OAqgCVF0lbh1HcKps8vi3DFjlof3Zs2dTVlYW5ebmUkpKCj344IPG/54cNDwmdgOoqieXRAHuWIDq8ePHDR1v377dUTjCztUswBfGv/nNb9QKR1gKoKoeS9wCRnKnBANe1uEjBvhNXribMvLdBad2OXnN7goa++FWGvPBVwBVuVHNy073GKFHVb/30k7Ubli/fG0m9ejV13j9lLg143uXXUa3330vfbgoNSaQynYAqKonF4CqOsFs2rTJAFV+NRX+Gt8CPOx/+eWXO3oiAFX1WOJmUP3nvG00edHumOWgaOXjrGNn6cV3N9FHn+/Rvh3KLe3hyXtUoyUA7MdZSF6/s5DW7CholMAAUFVPLgBVdc754osv6Nvf/rb6BijpqAUERF64cMGx44hj4Kn/8Lf5uAWMzJ1t/PuTdXuN4f4dBacbJR81lDVW7yg1eoPX7/Z/KVSun92yW9oDoHrcWdhqqMCwfeO0D0AVoOoEuQBUnbBq5PsUEAlQDQ+RDDNOj5C6BYxkcPvHh5uNe1LjOR9PWpBJH67apfX1RLe0h29/bjapTvuy9ymXFfvcvSdTaxvdY6xct5MGT10Tl1c58Sz6RD93A1QnpzuqXfYRp/0jOyeLeBL+qDLX9cFEqccHs2Y6/h5VgGrkUOnElrEE1az96vlT1wfh5+ocE0m8GjQ5nVbvKIlrzvgw9QC9MmuTVi5wi67Qo4oe1bh2PqeAGT2q6FF1AowAqk5YNfJ9xhJUMfQfvtfWLT145h7V/UVHjWHzjPz4HPYXOXLF1uM0ZNqa+OxRNTdIuN+6rzbg/Tk9VICHqRpnaFyIP1HnAFWAauT4Y78lQNXeNo3xH4Cq9/xcl0t2HTxsgGp20bm47tThNwDwO18ratS/kOaWCwf0qKJHNa6dzylQBqh6L4HF4vVUANXGwFH7YwJUvefn+qBaCFC1eZ2oVeemEx2aAFWAKkDVQgMAVe8lMICqPdAl6n8Aqt7zc4AqelTrfK5LVxBcXpfGMfSPoX8nelUBqt5LYADVRMVR+3oBVL3n57pcsusgelTZZqqTLsOptAd6VC1605wAH+wzvoAaoOq9BAZQtQe6RP0PQNV7fq4CRmYoA6j6P79qtkmo3wBVC6pHj2p8AWC8ADtA1XsJDKCaqDhqXy+Aqvf8HKCKof963cN46h8gGS9waj5PgKr3EhhA1R7oEvU/AFXv+TlAFaAKUMWtBAnxcBZA1XsJDKCaqDhqXy+Aqvf8PJqg2q3nI+TWydzxwr/xeiqLIXlxDwN6VNGjKjtMPCwDVL2XwACq9kCXqP8BqHrPz6MJqpdccgk9+uijrptatr6xXocRQBWgWk8U8QBjOEf7iwiAqvcSGEA1UXHUvl4AVe/5ebRB9fPPP7cXWCP8Z+zYsZRwoMpPaDk55ebnOLr/DXvyaPDUtQBF3HIQVQ0IUHXSN3jfTvuH0+cv9p8I9Vj86ULiHhIn//DCfyetq7/vWIJqceUxR3Oh8EUn54ng52wfnXpsz8m3feE/x4t4A9XiyiLX6TBce/gqz5Qb335VmXMDV9SUKpfnfeYV5GqV1z3Gxn0HAKqA1KhCKvc0C1BV8QtRRle7sfCP8tMlVFpd7KgPJko9/r1iCUBVn/XieotYgqpO7tSNJfBz57hkV8GhhALVslMlyvnALbrCe1QBeVGHvES4pUCAqrjXWmXOyYWhTaWsKOP0Pdxu+VazqK+Y69oqFvXA0H9cM2dEJx9LUD1xRv1pazf6B/uuF+NVqPeoxmOPakWNug5jEXdVdAVQBagCVC00AFD1HnADVCNivbjeCKDqPT9XASNxQc1zgCpe+F+v90n3ShIv/Ld/ICgRejYbqw4AVe8lMIBqXDNnRCcPUPWenwNU0aNaDzydHioAqAJUnYBZgKr3EhhANSLWi+uNAKre83N3gupFulBzmM4UzqWawqV0piKbLpytposXzhNdvKDlYwn51L+5izvcb93eTl1BcHndYwBUAaoA1Yp6F4jCl91yj5E4HzHX9fNY1AOgqpUPE6IwQBWgKmKS3TyqQ/8XLxrgeZHh05guEtFFunjhDJ2r2Eg1WS9S1bahVLHp71SZ+RZ9fXwTna8po4sXzhnlVJwOoOrCh0UAqgBVgCpA1SrJ6MIwQFUlDSZWGYAqQNUqdpjXRQ1UL16ki+dO09dF6fR1aQZd+OYk0UXuMT1PF8+W09ljc6lm3wiq2jKAyr58mCrW9/VPG/9OVfvm0bmaCiXnA6gCVPHgkcWDR06AYmPvE0P/3ktgAFWlPJhQhQCq3vNzhlCdWxKjA6oX6eL5GjpzfDVVZ75IJzYNpIotL9Opg6vp/KmDdL5yM509NJVO7x1BlV89ReXpj1J5eh8qWdmDiv7dnY4sfoC+Lj+o5HsAVYAqQBWgajvMrtuDpxswubzuMWIxZJ4o9QCoKuXBhCoEUAWocvwKNWUeOtzw96he+JrOndhINTmvUvWO56hiQ38q/bI3laU/Sl/njKWLpR/T+aIZdObAa1S5bTBVrH+cSlY9REcXd6PD87rR0RUj6cK5r5V8D6AKUAWoAlRtg5ouRCYK4CVKPQCqSnkwoQoBVAGqoSCV/9dwUL1AF07toW8K3zCG9k9uH0gVG3hY/690KuNJOpXRj87mj6fzh9+kb3L+QVVbnqPiVX3o6KLuVDinKxXM7Eon9q6ki+e/UfI9gCpAFaAKUAWoWvRA6AylcfDXhfpY9AwDVJXyYEIVAqgCVB0H1Yvn6FzFl1ST8xJVZw6hqq0DqPKrp+n0zmfo1PZH6OTmPnRyy5NU9dUgKvv8ESr6dw86Mv9eOjT7Hsp/rzPtf7MLVR/cRhe93KPKXylQnTi58Ce1VMtzOf6Eqk553WNs3ItPqDb2/ZyJeHxxj6qT2o2Ff/Dn8vgTqqhH+Di35LNP8AnVhMLQ8JWJJaiyL6r6oW4ehJ+r21Y37u7Mb/gnVM+fyqZTe5OpfG0fKk17hE5mPEfV2x6lqk0P04m1vaj8iwepZHlPKkq5j47M/wsdmt2FDrx7J+X8qxPtm3AbHVk+lr4p/YrOnSqk899UEfFrq2z+wvWo6uQDt+jKV366lFQndh6upGp5LpeXn6tVXvcYG/YeMO4feWZimvK86+iPqGPSe1rTHSNnKu9f51xQNo3+MuZjrbbgtrv9xfcdb49BU9Y4qt1Y+Af7a5mmz+r6YKLUY8lniwGqNskvUVfHElR1cqeuD8LPneOSjAMNB9UL35ygk7v/Rcc+vZ8Ozu1MJV/0p5ObH6MT63obkFq68n7joamji+6lwrk83H835bzZkbIm3kK7X7mJ9k64jU589TxV75tG1Xn/ptNF+2xdMhyoFldxh6Ma97lFV3H/CdXtuQeJp535hcrTIxMXUNKSNJq0dpvS9PqXX9Hdoz5Q3j+fy9bsfMo4oH5OkdRD9xh8Xmu27nVdPR6btIiGL/5SqS24zSakbaE7X5oZk3qEGxYy/5+TS+UZDKWZbWL3W9dWGPq3zUv4RwMsEEtQPXFG/YtAbvQP9uVEuMVHtx4Nv0eV6ELNUTq5ZzwdXdqDDsy6i/Jm3UsnNjxBFWkPUemq++n40u50ZOFf6PC8rnRk8b106KN7KG/6HZQ1yQ+qu0bfSHnv/YWOLX2U8mb2pIOfjrdVfThQ5R5lu7gsr49F3FVpj7gH1UgM2W/qIgNU5+XkkcrEoNp51AfKjcuGR6AJ/SSl2SGe+NcnBqiqtAWXEaBq3ke432gP9fbQtRXbPhESGO5Rtc19CfsPgCourMPljoaD6kU6V7aBqrYPpuLVPejQwnso94N7qHz9U1T2+f1UvLwbHVnQlbKndqB9E26hg3PuomOfdqPDC++l/W90pMxXbqKdo/5EO0beSLvGtqevhrWhfW8+a+uTANUE6TECqDoHLZFcOABU3dUeAFXbHNDgf3zxxRf07W9/u8H7wQ6iYwGAKkDVWVDll/yfpDOHZ1Pl5kfp+KoeVLi4Kx3+9GGqWNeHSlPvo2NLutK+ibfStudb07YXWlHW5FuoaFk3OvZZDzowszPtfrWtAarbh7ehLcNa0eZBLWnvGwBV257DRElgAFV3gRFA1V3tkSh+rlsP9KhGB/7iaS8AVYCqY6BqfC71PF04lU01OWPpxMYH6fiq+wxQLVv7JFWs6Uklq7rTgffuoB0v/pF2jPwj7Uq+kfZNbE9FSx+i8jV/pcPz/0J7Xm9LO1/+E/lBtSVtHtQKoBqq0XQDP+/LjUOCAFV3gRFA1V3tkSh+rlsPgGo8IWZ0zhWgClANxTz8v0iG/i9eOEfnvz5OZyu20zdHZtPprL/Tic2PUPHq++nY8l50YlNfqlhzPxWv6E5Zk2+l3eNuon0T29H+N26lvOmdqCS1L1V+NYCOLv4L7R0fANURf6Qtf2tDm//ejrJnj7F1AAz9Y+jftrdZFrtukoxkyFz3GG69cACoAlRl/5GXY+EfAFXb3Jew/wCoAlTlWCMvRwKqF86UUE3+21S9exSdzhpJZ/JfppqcF6li8wAq3/AUVW7qTRVretCxlHtp/79uo9x3OlD+B7fTobl30eGFXaksvb/xsNWRhV1pnwGqN9KOl9rSvpnP05G1C+lkYZatTwJUAaoAVYuXvZsdOxKgAKgCVM0asvodia50L+QAqra5L2H/AVAFqFrFG/O6iEC15hB9nf03Op3Zj6p3PUVf5yTRmfxRdHrfc3Ryx1+pcvODBqgeXXwPHZpzJx1Z0JmKPu1KJSu7UdmXvanyq2eoYn0/Ojj7btrz2s20a/RNlP3es/R1+VE6V1NNF8+fs/VJgCpAFaAKULXVgC4YcTB0460xXq0HQNU29yXsPwCqAFUzlFr9jgRUz58qoOqdz9DJrb3p5NaH6fSeZ+hMzkCq2fMYndrRm6oYVNf2oOKV99Hx5X+h0s/vo4p1Paly08NUveM5Or17OJWl/5Xypt9uvEd115i2VJKxKiSgCicFqAJUbSFFFrhuso9Fj5FbwQg9quhRlf1HXo6FfwBURarzzhygClCVY428HAmonqvOp4qNj1NpWk9jqtr+JJ3Jfppq9jxCp3b0MkD1xNr7qeqr/nRi40NUvaM31WT+lb7en0TnDr9JZ/Nfo+KVj9H+qR1o97i2tHtiNzp7upKIH9AK8wdQBagCVNGjaqsB3YsTDojoUVWDdIBqmOyEf0dkAYAqQFUGU3k5IlCtyqfiL/rS0aX30dFPu1HFxv4GqH7NoLq9FlRPrH+YTm57kk7tHEBnD02g80feolanxMkAACAASURBVPNH36HqHSOpYNa9tHdCO9o9rh0VrpxKF86dUdI4QBWgagspsrh1oSUWiditYIQeVTVY4/aDrpyzFXpUlfJgQhUCqAJU5dwtL0cCqudPF1P5tsl0ZNnjdGhBDypN60df732SanY9TNVbe1HlpgeJe1TLPu9BlZsep5PbnqOvc/9JZw/8k05uG0GFCx6k7Gm30r4J7Wn3a7dRVf52pWF/ds6EBFVOfE5Oufk5ju5/w548Wpi+W2t66PV59PcFn2tNd730gdYxdM8pVuVnL9/munr0Gr9Aqy247e4YOTMm9XDSN3jfTvuH0+cv9p8I9Vj86UK65JJLHAUxvPDfUfNq7zyWoFpceczRXCh80cl5Ivg520enHjty8+mZiWmUXXSOco6frzNxvPj8888tdHeRzp+popqiDCrdMp0qNr9ENTsep6o191HF+r/6n/pfe79xb2rJqvupeFUvKv3icSpe0Y8OzulKuW93pOyptwRA9VYqz1xNF8+ftThO/VXhQLW4ssh1OgzXHj7+NrnqxA1cUVOqXJ73m1eQq1Ve9xgb9x2gwVPX0qsf7VCeeo5bQJFMOsd4dc52evUjnlTPazv5t1EtvyNQXucYYhsnj6Ffj0jagrdRt62ot46tttOgKWsc1W4s/KP8dAmVVhejHgpx7t8rlgBU6+e9hF4TS1DVyZ26eRB+7hyXZB4sjABU2W0uEl28QBfPn6FzlVlUk/0KVaztRcdWPGDcv1qxtqfxZari5ffSsSX30OH5nY3Pp+a/14ly37qNsqcwqLaj3a/cTPvfe5LO8T2qCn/hQLXsVIlyPnCLrnxyN3eoZXYeTq6hysj/c/oevI1Z+TRk6to6VznyVQ+W614Fwh7h7ZG6o9QAVVnPoZbd6B9evqVEtz0w9K+QBROsSCxB9cSZMuXcqatd+LlzXBLJ0L/sJhe+KafqfVPo+PL76eC8LnT40z5UvqY3laZ2p5Ll3agopavxiip+VRWDas6bt1LWlPbBe1T3Tu5BNSWH5N1aLocDVdZKqDxm/p9bdAVQlbryAXHhIc4LNgKoOhf4ORC6MREDVC3zXkKvBKh6z885/uh0oEUDVM9X7abKLc/T4QX3UPYbHWjPpI7GS/1LV/tB1d+j2oUOze1C+bNup5x3OgRBdd/UblS0bg5d+KZGyRcBquhRRc+tR8AeoOq9BAZQVcqDCVUIoOo9P481qF68cJbOFi2lE+v70uH5XWj/tNto78TbqSz9MX+P6orudHzFY1S64TUq+2oiFaf/jQ590pv2v30nZb/ZjYrWvk9nT5XTxYsXlHwPoApQBagCVG2HTXR7CXUDplt7IhOlHgBVpTyYUIUAqgBVjl+hpl2HDkd4j2rAVS6cobMlX1Dl1ufpyCf30/5/daDCBfwJ1QcNUC1d/RBVbJtKZ6uO0vmvy+hM2S6q3LeQDq9MpuPrZ9I3lce1fA6gClAFqAJUbYMaQDV0wDcnA11bxeJeKYCqVj5MiMIAVYCqOS5Z/W4oqHJP6MVvyumb0u1UtXcuHVk2gsrXPkcn1jxIZZ/fT6Vf9KOvj20jung+8ADWeTr/TTXVlObT2ZOldPGC/edSrZwQoApQBagCVAGqFj0QOvd8cTIAqFqlGKyLtQUAqgBVKzg1r2soqAY1ffECXfimms6U5tCZI19Q9e5/UfmaZ6hi02hjfbBcA38AVAGqAFWAKkAVoBpxKsF7VCM2nSMbAlQBqmYotfodNVA1FMyfQL1IF8/W0IXTx+mbsj109kSuvyc1SgoHqAJUAaoxBNX1OwtpzY6CRrE5HqbyXgLD0H+UMmUc7Qag6j0/ZxjVGQHadTD8PaoFBQXklgmgClBtFGjywuugRB2Xr82kHr360v/86Ary+XzG9L3LLqPb776XPlyUGjP7A1S9l8BiAaqbNm0yNH369Ok4wrnEPdXPPvuMLr/8ckcrKGAY71ENfw97LO5FjzaoijzlpnnL1jfWy5VrdlcYD4XhPaqNMCSIF/4nzntPk8e/ZSTxDh060uzZsykrK4tyc3MpJSWFHnzwQeN/Tw4aXs8BBeRGcw5QBag6QS/Hjx83dLx9+3Yndo99alpg0qRJ9Jvf/EZzK73iAFX1WBJvoJq2NY/cOsn5EKBqAajiXg+dLnbeRvchC4BqYoDqxLfmGAmcE4fd3+LFi+lb3/oWDRz2kuOwClBVTy66PRSR+HksElgselRZ27/+9a9pwoQJdjLH+hhaoGvXrvT44487ekSAqnosiYWf68arUEP/Mgy6eTmuQXV/bjapTvuy9ymXFfvcvSdTaxvdY6xct5MGT12jBS4tftfSgCI3ddXzuXz/+/+hVQ83O4XOue09XENXNmlGo0aNCpswPv74Y6PtUlK3OWorA1QnpzuqXfYRp/0jOyeLeBL+qDLX9cFEqccHs2bSJZdcElaDDS0wYsQIuuGGGxq6G2zfQAscOnTIiCU8/O/knwDVrP3q+VPXB+Hn6hyjG6/SNmfavkdVJ881dlkBqlka+cAtuvLkJ1QZVMePH09paWmumZYtW+ZZUB392hvUrNlPlHMF3xrQ69GnnAfVKWtsn/Dnq3J50h0N0L2y5/K6x3BjD4Vb6xGrHlV+6IIvTGfNmqWseRSMvgWefvppatWqVfR3LO1RgCruUa0fM+UY6sZ4hR7V0nq5Tm4387JujuJtw428expUpXjSqIteBtW7uvagfv36Kdt/2rRpdNWvrgGoWsCyOWDwbzcGfj4v3WAWi3rEClRZ6C+99BL9+Mc/pvz8fGXdo2D0LLBo0SLjYoHjrtN/AFUM/Td2byofX/SolteUKYNnLOIuQNXmVUqiR9XpAKWzfy+D6h9a/ZFeeeUVZXMtX76cLrvscoAqQDVkwNWF4ViCKov9zjvvpJYtW9LRo0eVtY+CDbfA6tWr6Tvf+Q4lJSU1fGcKewCoAlQBqqF709GjagGrAFV3PYB1Y9tbtZLGggULjNdXOen8eJhKPbmoXBFzGfOkC5GxuLKPNajyK6o6dOhAv/jFL8jp+yQVeMoTRaZMmWL0pA4aNChm9QWoqseSWPi5brxKvKF/9KjWSUa6guDyugkskqf+AaruAtXHnhxMt956m3LiGDx4MP253W3oUZXgzwyC4rcbA38kfh6LesQaVIXgBw4caMBTt27daOnSpXT+PH/zG3/RskBZWRnNmDGDWrdubfSkTp06NVq7VtoPQBWg6mSniuq+MfQfImGG69IVCVXMYwWq7dq1J7dNXn3qf96na41EvWHDhrCBv6Kign7wwx/SmNffBKiG8DvhT7EAPD6W034ei3o0Fqiy6NevX08PPPCA4QeXXnoptWjRgtq1a0ft27fHFKENbr75Zrr66qsNm15xxRXEF7iFhYVhY0y0CwBUAaqqMOlkOYBqiITpdAKLpEeV38Pp1slJobp5313v60W///0fiEE01F/Pnj2Je8SdrguG/tWTC0A1lGL1/lddXU18D/bkyZPp5ZdfNl7Zxq9tw6RvgzFjxtBbb71lXATotUJ0SwNU1WNJLC5IdeMVhv7x1H+9WwVi0aPqNORg//q3FmQerCb+7Nu1115nJGo5VWzbto06dbqdmjb7KS1L2wlQDXFxKHpTee7GwM/npevnsahHY/aoynrHcuJYAKAKUHUDE6BHNUTSdGOPqhtEg3OoD7NZR87QA30eN4bqrrnm18ZQaO/evally1bGug533ENfbsl1HFK5bdCjqp5cdHsoAKqJA2GoSXgLAFTVY0ksLkh145WTPaq7D52i16d9QH36DaRuPR+hx5/5O739YYojOQ6gClB1RFhehdnVG7NoxJh/Us+H+1OPh/5KQ4Yn0+KVm2NqY4CqenLRDfwA1fBwgxKJYwGAqnos8RKovjh2Ev3gBz+kH/3oCurS5R569NFHiT9mwx8D+dXV/x+9NWtJVHMeQBWgGlVBeRVQ3VRvgKp6cgGoJg5UoSbRtwBAVT2WeAVUH3viOQNI+V50+a+8vJyGDBli/D95/FtRY4u4BlW+V8zJKTc/x9H9b9iTR4Onro1aY7oJlnAu9W8PiJVNBKg66Ru8b6f9w+nzF/tPhHos/nQhXXLJJXLewDIs0CALCFAtrjzmaC4UvujkPBH8nO2jU4/tOfn0zMQ0yi46FxXO+Mc/3zEgdOXKlSF1NWnSJKNctEYTBageryxynQ7DtYev8kw5qU7cwBU1pcrleb95Bbla5XWPsXHfAYCqxUcNYgV0iXocAaqqvsHldLUbC/8oP11CpdXFjvpgotTj3yuWAFRDpk78MxILCFDVyZ26sQR+7hyX7CoojCqo/uzn/0fJyclKUrq3Wze6o3O3qACyANXSUyXK+cAtuvLxsJ3qxM7DSUm1fCyGBCN5PVWiwhXqFb0eWAGqOlp3o3+4cSiNbaprq1jUA0/9K+VOFNK0gADVE2fUvwjkRv+IRT6PhZ/r1iOaD1N9sGCV0Usa7jWMQmKrVvnL78itaDCsClAtr1HXoVvaA6CK3sgGO0AiAjJA1V0XpLEImABVkR4xj6YFAKrqsSQWft6YoDp89AS6/vrfKcuLP7PMD1fNW7quwXkaoBqiVxavp4peL18iAqFb6wRQVU8uuoGfy7uxxwigqpw/UVDDAgBV9ViS6KDKb7C58cY/a6iHjNuRZi1cDVDlxKEy6SaXWCQwDP0DhJ2AXYCqenKJhZ/HIoEBVLXyJworWgCgqh5LYuHnuvEqmkP/r019n37yk58qKofowIED/gev1u8BqKpAKpcBqAIKnYBCN+4ToKqeXHQDfySxJBYJDKCqnD9RUMMCAFX1WBILP9eNV9EE1bSteQZ4fvHFF0oKev311+nn//fLBkMq51gM/YfokcXQP+DWjSAa7pwAqurJRTfwA1SVchQKJYgFAKrqsSTRQZXzTpduD1L79reEVXdhYSH9z49+RM+/9BpAlZOG6oQeVUBnOMBLlP8DVNWTC0A1bM5BAQ9bAKCqHku8AKprMw5Ss5/8P/Twww/TuXPnLD0jNzeXWrVqTTe16xAVSOW8jB7VELCLHlXAbTzCK0BVPbkkCqguXZVC3/72ty0TB1bCApFaAKCqHku8AKqcDz9ZvcX4TOovfvFLGj9+PG3bto0KCgpo7dq19Pzzz9N3v/tdat/hTsrIOwFQPVtBeD0VXk8VNUeIRyC1O2eAqnpySRRQ/WJ9qnH/GL8SBn+wQLQs8Nlnn9Hll1+uPHLJ/qQ7eulGwEuUekTzHlVzvsk6+g0N+vvLdNWvrjHiDr+Giqfft2xDYye8HfW8jB5V9KhGXVRmQeN37HulAareA9W9BzKNRLF///5oMQr2AwvQO++8Q//3i/8DqIbgBIZantwI3E6Bqjmvb80uIX7QalfBScdYIq5BtaKmjFQnvsrjT2qpludy/AlVnfK6x9i4F59QNQsev6MDtQJUndRuLPyj7JT/E6qoh1qc+8///E9avHgx8AoWiJoFnn32Wbqtw22O5kH4uXNcsjP/kPEJ1T2HzzgGkbHI259nlNLAiWlUeqpYWYtu0ZWv/HQpqU4MkfzdcNXyXC4vP1ervO4xNuw9QEOmro1rAcVCpDiGHsAKUNXRuq52Y+Ef7K9lmj7r5XrcfPNNNGTIkKhBCnYEC9zQ8gYaMnSwo3kQfu4clxyvKjFANS2zPK45Y17aQUqe9ZUWw7lFV7hHFfeoxrXzOQXgAlTFkJTKnAGv8oz3hszZNk4/NBmrIcEXRrxAv/71NaArWCAqFsjL8783c3HKYgz9x+nQP8e30e9vooVrC+M6V/7rk7307tIMrRwVq7gbLn8AVAGqce18ANXQr5dzS6CRQV8X6mNVj/S1acZ9qqov5I4KzWAnCWuB0aNH07XXXZswF3LhgCJe/Fy3HjOW7aDkWVvjNlduyammQVPW0PLNWQBVWaS8rCsI3QSGT6jqDWk7BXaJtl/0qHq3Z/gv3bpSt27dEhaeULHYWOD8+fPUrFkzGjfhH47nwVhdyDmdz91aj8NlR2nEOxto5oq8uITV8XN30pRFO+L2bRLoUUWPalw6ntNgDFD1LqiuXrPS6FVduXJlbIgGR0lIC3Bv6s/+92dU+U05QFVh2J87ttwKqtyBtnFfgXGv6ty0g3GTM7OPnaPpS/fTs5PTKb+0CKBq1ZuKHlX0djoNlE7tH6DqXVDluPVY/0epxfUtEhKgUCnnLcAvcOd3Yv5r+jTj3lSv9kTqjpC6GVT5+YMvMvJo8NS19PrcDFq75wTtO/qNK6E1s/BrWr2jhEbO2EyjZ26mHQcKDR3Ga3ugRxU9qq50NKcAVHW/AFVvg+qxisP0y6t+Sf3793eeanCEhLLAmTNn6IYb/kDd7+8WfIAKoBr6XnrR0eV2UOXzPFR+nN5I2WH0rj4zMY1efv8revWjHdK0nV79iCd5fYjlOZrled8W2yRN32icG7+K6qPU3UEN8rkDVG269p12UNyjil5bVfjUKQdQ9TaoclBf/sUyo1ds5MiRCQVSqIyzFrjnnnuoxfW/Jb7YEQDmdB6MB8ATtgg1j6d6FFeX0s78QlqxdT8tWb+vzrR47V7iSV4fanlR+m76ZF3d/YQqz//7aMV2WsLbmCbu9d135AidsHgDDUAVoIqeyQTqnQaoAlQ5oc6eP8uA1b/97W/O0g32HvcWqKyspLvuuouu+tVVlJG1LQiprCOAauL0qIYCbfG/eAJucc5Wc7fUA0P/CQRXOj2GKBu6JxqgClAVgXv+krn0Xz/4L+KesoKCgrgHKlQg+hb4/PPP6ZprrqaWrVtSZk5GHUhlHQFUAaointjNdXs7vaQrgCpAFT3BFhoAqAJUzQll6+6vqP2t7eiyyy6jV199lc6dOxd92sEe484CfOHy1FNPGb3u/AAeP+Fv1o34DVAFqAot2M0BqvYaAahaQAp6G0P3NnrBPgBV64RrF2S9kojHT36NfvLTn9AVV1xBw4YNo02bNsUdXOGEG2YBvkhZunQpPfzwwwagtmrTihakzLMEVOEvXvEPUV8x14Uvtww1i/MXc9TDHiKFjcRc11a8XTj/8PFOnZxy83Mc3f+GPf7XRcxOPUCq09Dpn1Mkk+r+UU69LdhWkbQFb+O0nflLHk76Bu/baf9w+vzF/r1Wj/GTXqM//qmNASpXXPEj6tCxAz355JOUlJREo0aNSphpePIU+vsr79Pfx80MTn975X2qnWbS31+p/Z8o9+KY1xPGBtyeL7zwAj366KP0pxv/RJdeeqnR7p3vuZs+nPuBUozwmn+IuODWOdrDWe7Tbfdw7eHjd4OpTnzwippS5fK837yCXK3yusfYuO8AjZ+7hSbM26o83fePufTwlEVa050vfaC8fz6X8R9voQk65zV3i3Y9tI8xbyu9+uEm19WjxyvztNqC2+6Oke/HpB6qvsHldLUbC/8oP11CpdXFjvqgl+uxKyuD3v3gHXpu2CC6976/0C23tqeb295kO93U9s90081/tv2/1bZc/qYQ+7Ta5o9/+mODjnFXj79S35c+NF5zkzxzM2lNH3xlbPfQoAnU8e57g+fRGPWwso15nWp73NbxNnrgoftp+MgX6OOFc+hI6SEtn3I6D8LP3cUlaI/otkfcD/1HMlTQb+oiSlqSRvNy8pSm17/8ijqP+iDk0I7o9hZzhhZO4GI53DySeugeg88hXBe7fJ66x4ikHk/86xMavvhLpbbgNpuQtoXufGmmsm25TrGoh+4x3NoeqIdzw1yR+Ecs22NLzkGatGCbAZpvpmTRpv0nI7qHPTWjlF7/OMPYzwcrd1Hu8WPaPgj/QP6Q85HVciz9w+r4Vuvc7udW52y1zi31AKgqwCpA1dmACVD1LhhZBUerdW4JmPK56SZJt9Zj4968qACqfP+6GVjf+yyDco4d07rAdOOFtW6bs2ZQD7UY51b/0G1z1EOdGVT8A6AKUA2ZOGLhoABVtSDODh2L9tA9hkqg4TLmSfcYCPzRDfyiLaLVgyoDqrxsBtaZK3ZSznE1YAXg1fUb0W7yHP7hjH8IOyNeqemQ7aVrK94mnJ8DVAGqdQBCOKaY64oukoAJUHUuCETSHrptrhJohJ7EXPcYqEd0E3GsALWhwBougQk9iTl05VwsYRujPdTsi3gV3XgFUAWoAlSl3j4OyAg00Q00AiTEHEChlvDYXrq24m3sgKKxADUUsPI9rHY9rHb1EDqS57q2gp/Dz2UNWS1DV40Tr0RbAFQBqgBVgGodDegGZQ4mAAq1QN5YYOQWQA0HrPuL6t4SAF25W1cCJOzmurGksfzD7vzFetRDTYdsL11b8Tbh/BygClCtAynCMcVcV3SRBBoM/TsXBCJpD902Vwk0Qk9irnsM1COynq+6gLov4qf4ZcCM9nLde1h3UU4AWMMlMKEnMYeunIslbGO0h5p9Ea8ii1fCj+U5QBWgClBFj2odDegmeyQw9aAcqwT2+ebdpqf43QuoMvDKwLolM6uONuUEJi/rajdW7QHAA+DJWpWXdbXL23tFVwBVgGrIRKDrPJEEfvSoqgVxDkyxaA/dY3gpYDY0uUTiHzrtES89qDKgysupGSXB97DOXJFJ+4uOhoxTol10bMXbON0e4ry8AhSivmKO9nAutrONvaIrgCpANWQCiEWgAag6F8yQiNV7O+M58CcKoNYD1h21wPr+8l0k38MqgEjMYxGvdI8Rz7oSdhVzr4CRqK+Y67Y54m504y5AFaAKUMXQfx0N6AZlDuZIYGoXG9FOYIkKqCGBdYU9sOpqN9rtIcBGnsM/Gsc/5HYQy2iP+GoP3/7cbFKd9mXvUy4r9rl7T6bWNrrHWLlup/GZvmcmpinPu47+iDomvac13TFypvL+dc4FZdPoL2M+1moLbrvbX3zf8fYYNDndUe2yjzjtH9k5WcST8EeVua4Poh7qMTRa7bFq/U56dfZGx33AzfHpjYWbaeP2PXW0ravdaLVHOL+Cn6v5CNpDzU5Cb17RVdz3qG7MyqchU9fSl7vKlaeZn++nSCadY6BsfLdH6o5SGjRlTZ2eRnE1bjfX7c3h/eDKPr6u7OW2123zhvbg7cwvJJVpzda9SuXEvrZm51PGAbV98zbbcw8ak9heZa57DN6naj3ELQGxbg9ZD3bL8HP4uZ02xHpd7fJ2XtFVwoCqPFSE5fMEG0RuA4BqdO8xEsFYzHWDckMBTxw33NwrgV+2A9pDDaTYbrq24m2gKzX7ws8Rd+XYxMsA1eORwwxAMHFtB1BFwLQKmPI6XWhBIoauZA1ZLUNXamDLttO1FW+DCwc1+7olXgFUAaroebXQAEAVQGEFEPI63STplsCPevgTNdoDfi77gtUy/FwNbNl2urbibcJdOABULSAFPaWJ21Oq2rYAVSQwq4Qlr9MNygAj6ErWkNUydNW4YCS3CdqjcdsDoApQRY+qhQYAqgAKOVlZLSOBNW4Ck9sE7YH2kDVhtRyuB0/eBrpqXF0BVC0gRbXXDeUSt+cVoApQlZOV1TISWOMmMLlN0B5oD1kTVssAVTWduGUECKAKUEWPqoUGAKoAVasEJ68DGKklPLabrq14GwCFmn3dAhTwD397oT2imz8AqhaQgp7Sxu0pXb0xi0aM+Sf1fLg/9XjorzRkeDItXrk5pkANUI1uoEECQwIDqKpBZyRQDzBCvJJjrNWyrg+6RVcAVYBqTAEw1EVA1pEz9ECfx8nn89E11/yaHnjgAerduze1bNnKWNfhjnvoyy25MTlfgCoCv1Wgl9fFa+BHPXDhoKtd1gx6uNUuNtwCeIni5wBVgGpMwC8UoPL/Mg9WU8vWN9K1115Hy5cvJ/lv27Zt1KnT7dS02U9pWdpOx88ZoApQlYO81bJuskcCg66sdCSvg67UgJDtpmsr3gbArWZft8QrHzeyk1Nufo6j+9+wJ48GT12rBS4Dh71Ebp3CAV2i/r/rfb3o97//A1VUVMiMWme5Z8+e1OJ3LbXaOxKbCVB10jd43077h9PnL/afCPX4KusAzV6+jRam7477CfVwVxtye5RUFTmaC4UvOjlPBD9n+6AeznKfrgbDtYev8kw5qU588IqaUuXyvN+8glyt8rrH2LjvgDaoMui0a9feddP3v/8fjgNYJNDm9DbzPl1rDO1v2LChDpRaLTDI/uCHP6Qxr7/pqK0EqKr6BpfT1W4s/KP8dAmVVhc76oOJUo/teYfo2Unp9OpHO9SnOdvp1Y94Ut1mO71qbKNafkegvM4xxDZOHgP1UG/zHfTMxDQ68XWZsh/qxhL4ubu4BO0R3fbw5NA/g+r48eOtOKjR1i1btoy8CqqPPTmYbr31NmXbDx48mP7c7raYgKo8JBdqmZMLQ1uoMvL/MATlniGoHQf8oOr0hRn237gPa8ba/mmZ5QaoVn6jHht0Y4lbhmjl+IZ6qMU3tpuurXgbr+QPgKoyHjlb0MugemPbWykpKUnZwAsWLKD/+dEVANWz4YMgEpg6HABUvQWQsQJWgKq6DyJeqdsKoGqTAN1I/Buz8mmI5j2q6FF1V0L6Q6s/0iuvvKIMqvyw1WWXXQ5QtfFTc68GAr964AeouisuxAoknT4OQFXdBxGv1G0FULVJgABVZZbSLujlHtW7uvagfv36Kdts2rRpdNWvrgGo2vgpQNXf06wbrwCqAFUnoBWgqg5fAFV1WwFUbRKgbuCPhSEb0qOalpZGbpm8DKqjX3uDmjX7iTKodujQkXo9+hRA1cZPAaoAVSeAC/uMDOQBqurwBVBVt1Us+Mot7eHZe1T5pfJum7z6MNXewzV0ZZNmNGrUqLCw+vHHHxvtlpK6DaAKUA354JruhTV6VCMDMQBsaLsBVNXhyy1gZL7Y59+6sQT1UG9zFeD2JKgisIYOrI1hn4lvzTEAdNKkSbawunjxYvrWt75lvAPX6XMUr6eSA1aoZd1gpuKg8vF0j4GAqR4wAaruiwtO+3ks9g9QVfdBxCt1W3kpfwBU8WUqR3smdRJB8vi3Cygv2gAAIABJREFUDFjlof3Zs2dTVlYW5ebmUkpKCj344IPG/54cNDwm5wtQ9V7ABKgCVHXilWpZgKp6LAGoqtsKoGozpKjbmxMLQ0Zyj6pqgEG52Ceu5WszqUevvsbrp8StGd+77DK6/e576cNFqTGBVG53gKr3AiZANfb+7oUYC1BVjyUAVXVbxYKv3NIe6FFFj2rM4E83Ka3fWUhrdhQ0yvkBVL0XMAGqAFXdGKVSHqCqHkvcAkYMgeZJt5MO9VBvcxXg9lXUlJHqxI3FnwZTLc/l+BOqOuV1j7Fxr/4nVFWCC8p4O2kJUHVSu7Hwj7JT/k+ooh7h49zWnIPGJ1Th+972/Wi3vwDV8tOlyrlQNw/Cz93FJWiP6LaHj51HdWLn4e+Gq5bncnn5uVrldY+xYe8B7Rf+RzsQYX+Jl9gEqOpoXVe7sfAP9tcyTZ/1aj225hQAVDHCFPURHAGqDC+q8UTXB+Hn7uIStEd02wND/wjMUQ/MiQDuAlTNwz/hfnNyqTwT3SEP+Zi6x8AQlHp7YOg/8S443RCLBKhWfqOuRfh53aF3OQ6al3VtxdseOJhXZ2jfvD+r37rHQNxV17pKewBUAaoAVQsNAFSjG2jk4O/GwA9QBag6AbYAVfVYAsBTt5UK4MVD3FWpB0DVAlKcCFbYZ3wlQYCq9wImQDW+fDReYipAVT2WAFTVbaUCeABV6ak42SBi2ekudryeCsnFiYQFUPVewASoIpY4EUsAquqxBKCqbiuAqg2E6g7XxcKQAFUkFyeSC0DVewEToIpY4kQsAaiqxxKAqrqtYsFXbmkPDP1j6B/3qFpoAKDqvYAJUAWoAlRDP8Tk9AipW8BIjAiLuW4nHeoR3fwBULWAFCeCFfYZX0kQoBrdQCMCvpi7MfADVOPLR+MlpqJHVT2WAPDUbcWx1CsXDgBVgCp6VC00AFD1XsAEqAJUnYBfgKp6LAGoqtsKoIp7VAFvFvDmRBB36z4Bqt4LmABVgKoT8Qigqh5LAKrqtgKoAlQBqgBVGjRljaMvhfZSoOG6micM/QMKnYBCN+4ToKoOXwBVdVt5KX9g6N/jQObGwO6Gc0KPqvcCJnpUAc9OxB6AqnosAaiq28pToMo9G05Oufk5ju5/w548Gjx1LXpAAdxR1YAAVSd9g/fttH84ff5i/4lQj6+yDtCzk9JpduoBTLBBVDXwzMQ0KqkqcjQXCl90cp4Ifs72QT2c5T5dDYZrDx9/m1x14oNX1JQql+f95hXkapXXPcbGfQcAqoDUqEIq96oIUFX1DS6nq91Y+Ef56RIqrS521AcTpR7b8w7Rqx9uognztipP4z/eQhPmblEuz2XH65Sft5W0jzFvK+qh2oYxbI8TX5cp+6FuLIGfu4tL0B7RbQ8M/QPyog55TgyfxXqfAlTN91WG+83JhaEtXDnz/73yehFznfm3rq0wJAhdyRqyWoau6t4LbmUjsU7XVrwd4pWafRGvohuvAKoAVYCqhQYAqtENNCI5irlukkTgR3sI7YSaQ1dqIMU21LUVbwNQVbMv4lV04xVA1QJSYt17h+O57yEOgGp0A40MF7pJEoEf7SFryGoZulIDKbadrq14G4Cqmn0Rr6IbrwCqAFX0qFpoAKAa3UAjQ4VukkTgR3vIGrJahq7UQIptp2sr3gagqmZfxKvoxiuAqgWkoIfTfT2csW4TgGp0A40MFbpJEoEf7SFryGoZulIDKbadrq14G4Cqmn0Rr6IbrwCqAFX0qFpoAKAa3UAjQ4VukkTgR3vIGrJahq7UQIptp2sr3gagqmZfxKvoxiuAqgWkxLr3DsdzXw8uQDW6gUaGCt0kicCP9pA1ZLUMXamBFNtO11a8DUBVzb6IV9GNVwBVgCp6VC00AFCNbqCRoUI3SSLwoz1kDVktQ1dqIMW207UVbwNQVbMv4lV04xVA1QJS0MPpvh7OWLcJQDW6gUaGCt0kicCP9pA1ZLUMXamBFNtO11a8DUBVzb6IV9GNVwBVgCp6VC00AFCNbqCRoUI3SSLwoz1kDVktQ1dqIMW207UVbwNQVbMv4lV04xVA1QJSYt17h+O5rwcXoBrdQCNDhW6SROBHe8gaslqGrtRAim2nayveBqCqZl/Eq+jGK9/+3GxSnfZl71MuK/a5e0+m1ja6x1i5bic9MzENE2wQdQ0MmpzuqHbZR5z2j+ycLOJJ+KPKXNcHUQ/1GIr2ULcVdKVuK+hK3VbQlbqt3KKruO9R3Z57kHjamV+oPG3NzqeMA+rled9rtu5V3j+X1z0G6uHO9rDqtbFbhx4Ktd6GSHpz0EMR3R4KWcO62kV7oD1kDVktQ1fOxUS2t1d6uOMeVBEwETCtAqS8DgETAVPWhNWyVwK/XHf4B/xD1oTVMvxDTSfgkuhyCUD1rJrw4KBqdoKDRtdB5WQBoFDTIdtN11a8TSL4efHqoXSlz0e+65NpnVJ8y6DJt/jI52tBY7dWUM7sLuTz+ajL7GyS9SeW6/t5AW2ZPYAmbLJvH6faI3UUn7uPRq7Tb/P69bA/f1F3p+oh9s9z3WOgHoi7Zv3Y/Y5XXQFUlQJ5YiQwFm8iJGLUQz0oI4Gp2yphdHUyhQZcWQuedkkruH5rMv3WANsxBthGAqrrkpsEYTG4Xym26iZJ1fYAqFYQ/NyDfu6hfA5QlYKpXZAF4IXvaWDbIWAiYNr5kHm9LrRAV3q6Wjr8WgMcW4xLt+0VFe2xblwLo2yn6TvClhXbyO1hhkVRRp7rtjlvrxJ3zcfWPYZcD/mcrZZ1j6FaD/OxdI+Beuj5h4qu0B7uyecAVYBqyOSEgKkG6BzUdG2FBKaeXJCI1W1l6Gr5cGrBvaTNkig1ZIxLp7HXc+/r3fTuAfVjyO1hhkVzgjf/dso/zMfWPYZcD/P52v3WPQbvB2CkFkfRHuo+6CVdAVRDBvFa50KgqbWFXQDn9Qg0CDSh9CH+p5vsoStdXaXTtDsYQJsY924Ku8tzvp+1KQNt7/fo0Bn/MayG/sW6kWkFlDruPrq6qY98Ta+mToOH0J28vTSJ+1tDQ+QqGmlsVx+mC7Pm04QnutCfrrkyuO/mbbpQ/0kplFNTNxaFPkbdsnL9oStdXeWF7NiQ7Qs/D60/s710bcXbeoVLAKoA1ZCBR9d5EPgR+M3B1+43dOV8AhNw2fT5FCq2jHNFtPR5/72lT//7EFUqgGrrNq3I16wt9R4+mob070BdpsyiaeOSqb8BxT7q9EQyjR2XTNPWFRhxJTREWoNq5tze1JwBttnV1L7308b+xg69j65p5gfipr2mU6apPqGPEdrOiFeIV3Yxyrwe8Sq0HzXEVrxtOOAGqJoCntnY8u9whpTLQ9iNK2y0h9/+SMQeTsTHZlEfA/iG0tKTFv54MoUGBv7/SclxJVD1+TrStKz6IydmWDT7nnl9/ZhoAarH5lN/BtJm99GMXCmBlaTQMOM2hbq9xKGPYVFvU8yHf3jYP0w6MGvW6nd97UJXVnbidbq24m3C8RVAVVGs4QwpN5puYyFgImDKGrJahq5CJwizzXRtxdsmlp8X0MIn/MP/w1YX1Rs5KVzSL/jAldlWoidWDN+zXcQ6X/fplGNxi48ZFs1tYF5vPoa/TH1QLV4+lNq2v5paBx4Ck9tj3Xj/g1/mcwt9jNB6QdxF3DXr1e53fe1CV9GyFe9H9nN53wBVgGq9BGYWCRw0dEBqiK1UHNS8f/6N9kB7yJqwWhaBP3gP6lB5+L+A5jzCEOt/d6pZVwJKzTAo1jVN9r9FQAY8Myyaz8e83nwMf5n6oGreln+Leoj14jzM5xb6GKH1ItdDHCfUvH49Qh/Dqh6h9s//0z0G6gHgDqepeNaVjx3CySk3P8fR/Tt57uZ9ox7O6sRsa5XfaA+0h4pOdMsknq6W0Qh+8Mn3FPHwftAeBe9RLx727ziRtks5YO/7dxs9rZ3fzwyWt1oX3NfJ47Q8yX//6IgvTMcIsd6/7TIawefge4GWS+dg/L/iEG3/agUtX7aIZr45ip7ufZP/IS6fj8znZnds8/k19u/E01Xddm5s++oeH+3hrvYL1x4+voFedWIxVNSUKpfn/eYV5GqV1z1G+ekSKq0udvQYqId6m6M91G0FXanbCrpSt5Wsq7Wv+IfLn/nsWDBO7p/V2YBRfncqlzfHXfG/LrOy6pUX6+T2WP2SH1RfXFs3n5jXm4/Bx6w8s5JeNEA1iVab89D+efRiz6v9byMw/u/fd9PrOlKPuwND/6ZzC32MuufjP27tOrke8v+tluvXo3Z/VuV5HfJgeBuxndAekfu5nfbM63W165b2wNA/hv4x9G+hAQylYSgtYYbSsqZSWwa+J+ZToaH1jMCrq3rTnGP+YWtOYJzQuM5Ww+vyOtk/zMPvZruZ15uP4S9jMfSfO516GE/3N6Freg6gce/MptTd2VRY4T9P+Tx4P6GPEXpYXq6H+dztftevR+hj8H7kWxjs9i3W6x4D9UC8EtoJNY9XXQFULSDFqqERaMIHY7YbAiYCppX/yOviNWDGZz0EmPajhSUVVJU1lTrVAde690RawaC8TvZzMyyabWReX6/NC6ZTl0CPqvgoQeoo/+uyOr2VYUCzHHfFp1pxj2rdeCy3h7kN7H7Xaw+FXCi3h92+xXrdY6AeyB9CO+Y5QFXBOdlgkTtoAWV++jr17942+B5Afj9g2+79aOzsVcGXV8NB4aBmx7T7jcBfN0Hb2YnX69qKt4ncz9XOq7H8XIBm/yUFlPlWW+NDAOY3AZhtJcqaYVBeJ9fDDKTmNhFgycc1H4PLBB/08okX/mfTjO7+Yf6R6/z2rNseArh9ZD4387HlY5jPxeq3XA+rMvI63WPw9nXrEV4rusdAPdyUP7LpnW5+HcsfwhDLTa9rS12eeJ0WZvnfN8wasWzzkgxa+O4A6tPedCvMVa2oyxPJNGNdtmd0BVB1ElTLVtLI9v4eAiHQevOretOcXPREimFHOSnYLSPwh092bDskMDclsEZsD/FO1aGv0wR+Ob/0aVVzkpShlHUkr5N1lTmzi3HPKwOp2WeLlw8w1vu6T6XtFbW3F1SVrKKRbUQyF6Ba+wGCFkmrjI8U1Pp5AaWOauXflw+garYx/NykKyfzeeDWGNn29ZfDg2otBzSnPnP9owdmH6w6W0Rb3g18+MLXhK5p35sGjvN/TGPgI638H8Tw+ej3j75BmdKX2uqfT22uqHuM2vV228h+blfOvF73GLxtrZ9bnxNA1TFhZ9Lsh/yQ2vTuJFq4u8D0dZgiKtw9n8Z2b+4PvG2SKa2mlMpPl9YJ8ubGt/rthCDk4+gewy3CRj38Do/2AKj6faGIlg4VYOijFoH3lAo/Mfu5DKVcRl4n6yrYO3pVFyOhii9TVZ1Np7EBIG1ybTd65pUxJL4y1bRXEg3ryuckQNV/W0KXwBeomt/RjwYMH05jh/am1lcxXHekseP87371jVoVjJXoUW3EC6Aw+dOsK6G1UHNZV6HKiv/pHoO3CwdGYt9irneMWlAVIwNiP8F5RQYtfF5cePnvFa89RhGlJrf1P0zYZigtLKj/DuSqknQae3eAL4L3nltDXvCYdr22IdrQLe0BUA3RSOYG1hb2zon+BxiuH0qpgQcBzPvz/64N4n0X5QFUFduCbafdHqaHReq3Q30Hd4uDyudaG8zqn7NclpdRD4Cq0EUQJn1tja9LifU8N+tKhlL+v7yuvq4KKHWc6TOngfetGsfgpDyuN7X6pR+U+en9ge+mU+FZMdRvAlW+JWD3LBpp6jVq3qYL9Z80nzL5/tqS+dSf72u9PpnWBeIFQBV+7q4ROQVQNbRb91YW4YPFm5KotaHxUOxQQVUVKdTvSvapJmS+jcfs1/JvcQx5vd1yfT8Pn3d0j8HHDpfPAaqKcBTOkHJDl37xQmDIy/8lF/n/YtkYMmt2Nd085cv6oFqYQhOe6OLvTfD5iO9r6TNqFm3hgF0nuQSenu0+nbbsnk4D7/D31DZv05te/UdH4zza2jycUHV2FY00ejAG1P3MYk02LZ3Ujzq3+rm/Hnxf7SNJNCej7tAen4c/UXShGbs30zuDO/iHJa5qRX1m+oc0qgL76tIm0IPsa06tu/ejCauzpXqEdwJhN+32AKgGe6CEDe3mTgQa+Vi6x3BLwEQ9/D6K9sAFkOwLVsve9HNVUK0g8aU1HiHw2yo/8CEOH/VZWD/XyjZOH3e7kUuHLQnkWoNnCmjLwiTTfa3+WwdGLtxMeXGaBwGqToGq6FFtNoCW2vao1oKZHPiL1wWuqhjqHhlAY8cl00DxbsHAfa21QSAAqte3otbNfNS8O5cfQD3aDKWlOwNP+HaYSplWVy7rkowhhqbPm75cU1F7/9jPWz1UZ7jO56u9p0Y4jR9UW1DrNk3Id1VnGvCP0TSwZ6vAVV46TTDu021C19zdj4bxfTZJ/agTD+X5fNR61Co6ouk8fFyAaq12RDtYzWVdWZWR19XqSu0YvD3aQ81WaA8AnuxvVsu6PghduUlXGqCaHHiGRYDqgXcCb8IIvKEjDJ/Uj7sFtHBAbUeV/77WAdTjOv9xmjzwJu1SvtfWPT31ANUwQhBBpL4gQiem0pP7acHjARHyfVvvzqcthRb3mgSOXyfQFMzyv0uw2X00bXfdbQqXD/UPC7RJpi+DgCfeR+ijpvU+lSiG1/zDfXI9/K+DMQ8dZNOcXnzeTajHW5vrQuSxFBpm3G/WisZura2/GHrzNRtAKSV177UV3xMXr5sR9qyqWEXDrmdY7UiTd7rtZnj3OGjQXgGdIIHV6k62jbysayveXvYPeZ/ysu4x6vi5YuzRPQbqoQ4taA91W0FXqrZSBdXaW/+Cb8X4coh/BDPQsSTHG3m5XrzamkwtePS1HgdkBN6o0YSGrTqmPLrmFv8AqComi3qCCLOdkVzKNtG0R8Rwt78H0Xg11SMDaMLsFNpyrBZCzYJYNy7w9ZXZ/qHxuuLkhyL8IDl42aHAS7oFqDYhq5u3Cxf2Dg7/161HYNi/2dDaYf+A0H3d/bcsyEmSn+Jtyo5g6oEVoNp01Kp690SK/w1Lqw8Y/Jqc5m3a0uB/i3rUL1O37rX/r1uP2vV25eV62JUT683tIdaFm+seg/eHeoRvO7YT2kM1SfrtCV1BV4hX9hpw1j/CgWoRFeauomkDAg9TBfIv5w/xVbjaj3PY18EqfwTvJRe33Zk4hXN3k2tvoh7TN8UfqFbUlJHqxIbkT2qpludy/Ok4nfK6xyg75f+EqpPHaGg9CjLm0dTBvalVYLi79tUUPmrebQylFJRRbT3SKLkFQ21nmp5l3TYFi/oa4NlkVGqgPVZQkvHi7O40q8Bim8MfUG/+f6fJlG5uj/QR1MTnoyYjVwTbKP213xr77jJju7GuXnsUzaN+vK+mIyg9oJ1VI/0Qft+cfaZ6+M9DnKuvdV+amr6dik7WP796x1DQJHRV345WPlCrK7XyvA+0h3O2Qnsgf1j5qbxO1wehKzfpah+9c2+gY8rIy6F+t6Kk9KPBXJs1825/j6opJ8vaMC/Xy4Obxxg9qr6mHSgpZSMVVNSNZfGqKx+/Ekl14kqWVhcrl+f95uXnapXXPQafT5nmOekeI5r1OHZsO6UteZvG9O9AVzcNCLhpd3p7b6Aex+ZSX0PcHajvP0bTGKupfwe/mO99k/YadV8eANURtNKyPfNo1sN8rA40Lq22PdL+wVDahJLShAbyaF5//zl17O8/9ujkUTR67Mum8+hLHY3z60zv5Pi3WxkAVd5PvfYo/5LGtA3cAmFs93Nq9fDTNGXul7Sj2L99Y7aHnfbr1cPSrsJuqAf8vK4WoKv69oCf17eJrU40cy3ilZu4ZC+9HRJUm9DVbTtT33+8TSvzazXB/rH3/QCoPjiTshRyTv24u5dmPRx4ANrIt03o6rv60piZn9CmwiNGJwRrxU538nq36ApD/6au8VBDJY4MFZzMoDmi+7/TZNrB71ENflYw1FVY4H/3vkn7jRujxdB/3de8mOsj7hW9faro9k+nsXyPqOk1L1XB18UoHNvXhWYU+IclxPA+33ZgOURbk02ps5OoT/Cpf7H/JtR20HzaHrzXNvQwh7k+jrSHSQuW9TD933wu4jcHGne9JsWmPVAP26Ev6ErNB+EfuBVDxL1Qc92YmBi6Cjf0b+1jhq3WJvk7oSK9R9WI7YGvYd5t+pqVAa0++vm942htmbp23dIeANUwSVs4oV4CS6dX72xJzX2daUautSjFfqsqAu8F9PWlecdKqapwFvUwRGUPnWLb2iAQHlSD7x+8eyLlcJ0D96LWffE3P0jlh0hxr2vtMezrERZUzTauyKYtq6fTSPEGA5+PWo1LBeCZbRTit0p7CH3w3C2BxnxO/Bv1sPenhtqKt9eLV2gP2eahlnW1i/aIPzCS21+vzRsAqsfn+d8T7FN86n/5y9SJv1o1KcWf1+XccbKAMrfOoglPdAx+zarp4/OoUC5ns+yW/AFQtWkgWah6gT+bZj7gB77w70ITkNmdZuXzl6nSA+81re2xlM9FLNc6j9hHKLgVX6a53egJ9T+w1aLO0/u8X/FtbvEt7dpj2CdWLVA12bs4baj/fppbJmq9MoPPU689kIiFZlTmKm0u7wftYe8fZlu5JfCbz4l/67Y56qEOX2xf+IeX/KMBoHomnxY+ocoOFbR0+LVGD6z54WbZt4PLudOps9EJJr0z3ZSTg2UD69zi5wDVEI1kbjTdQJP30UP+Lvw2SZQaeEG/eX/idxDWbgsM/Z+t/d51vVc6Bc41892Oxsv/O4xbJj31HwpUK0h8d7v/khSLYX9/IAl+veYO/3tX6yWwrKnUiV/+f3cypQa+MWwPqhk0o29ban2VDXSL2xwAqrZD0UInYl6vPcLo1y2BRpy/mKMeaomb7aVrK95GN17pHgO6AqgKXw4196auGgKq5cZop9KXqXKn0z3Gl6nE6yKLKHVcW2p7XXPLt//wx31GAFStA693A+YWmnZ74F7Mq7rQyNmrKLOk9nVUxSUZlPruAGprfBWqCdX5hCrDIAuKv229Sfo6Re50/ztWfa1o9HpxT6RKj2oFVZ1MoQEs7A5tjc+7thifbgFI4rNuTajT+PS6X7KoyaAZxjtWfdTatK09qPKXN/yv4OAX+8vDDVum+b+a9dtkDP2HCvbm/3kz8HvvFgbxmhnjDSEtRtHasC/pFu9L9secIUvyLHzbOkazviLWlbjYDLzOzqxV+bc4hqibGLWRy5mXvZs/RGy3bzOznXDh4KYLhwaC6tkiSh3lz5tN2w+gOVm13BBs89xZ1N94p7n/oznFgQ4LfhbFeH1kr+mUGehIEtsUfjrAeMuPr8+serlYlJHnbtEVelTD9EiJhosoYB5fSSONrzIFgNW4mpF/N6c+726mYzX+p//E8TKX9PO/2N/XhK7p6f8y1bDgfSZNqMfsDFNyUQTVs0U05+kr/T29Ft/7Fseuyp0fdIIm13bzf5nK9DWppuwEJruFAlV+sf/IgEPxN777JyXT2HFDqX/gM6++Nkm0vEgvKPN5RtQeYZN9bVJwi4MG2yRgb5Hs5fV2y6iHmxKYOnALmPO/yu63NParMPUQwBiIMQDVWl+28w1eD/8IoytTnGd7Ie6q6KqhoMrHKKB14zsa0MkxgD+H7v/K1FDqH3xIqgn96dnZEnTWdib5+DPmQznfmr5q2bQbvbtfvc3d4h8AVckR7YJa5A5aRDmrp9LAR7hLvvY1Tfyi+z6jplNqoV/4loIoTKEJT3Sh1uL9qzzk/kgSzcnw97LWQosqqFbQgSVD/OIP91RhTTYtndSPOrcSr7qo/V6w3DMaElTZvoF9dTE99d+8TRfqzzeA1+j35iBgxl+gkf2qVrsqgd97QBEE1WZNjF6QFq+khewh9ZdvQk2NERofuRlUZS2EWo487kJXoezK/9P1Qd4G7aGiq2iAqv84xQUpNG1ob2pryp1Nr2tLXZ54nRZmFdi0RwFtWZhEfdrXPvXP2/QZNYs2HNbrFLLkkjDM5ISuAKphjC6cHQ6q4qDeAwqhDwT+GA01K/prvLdHEFSTkmgEv2/5+jG0zrbugWH/O4bSsO7uH/o3+0y434i7iLvhNOIEGMnH1D2GWwAvUeoBULUN/nUDBAJmXXvIDiCW4aDqvZ1sM+gKuhK+Y54HQXVUCn1ifDK5/hs6guUDw/6d3k0JfM/boke1cBXNGFW/Z4Z7WbaU2PSuGSM6HemaQC+t6JXh8kE/F7ccdJ9OmSWbac6o3sERIONWn8CoCZ+rSPaibuZ7VMU6fi1eYcYsGvlIq8DrdK6ka+7uRxPSpHv1g3Fb7j36ObXu3pcmrLb6/HQFVcmjVFe1os79X6WlgZGtoE2D+6+vT1EPlbKiDPy8vh2FbczzoK5C2N9cnn+jPdRsG4mt3NIeAFVFh0CgUXMGtwi7ocEM9QBwyxqyWtZNkqq6EuDmG7WKjix7zrhdx/rhxwryl+1I07JqH6gyD/0Xr0sKPLTZnFo/4r/ffazpnnOr+8Qz5/YOgGJz6vTEUOm+8gGUcjhwT70A1evbUlu+RemqwH3opv037TXLeMejsJWomxWodhngvze/+R39aNi4ZBrQu33gPJpQj7kyfNbejyfufx/9/GPUybhVqgm1TV5F4iETo+22vu63Q7OrA3VKpiH9OwT234pGrrN4aMUiP4h6WOnBbh3yB/KHnTbEeujKXiMAVYtAJIRjniPQ2IvIbCfVRGzeBg6qZlu2ma6t0B7xCdwC5hhUS0sW0TBj+D/ZYvhfDPvz6+SsQDWdxhoPM1qAWE0GTQvcKtD5/czaj24E3zpyn/TBkiLaMq2L8TBmk799QsekL+kZD1manzSuWEXD+Ot3Pn9vsNCuqJsVqPInnXvMzAjej8txN/gKvzpf0SuidcmBN4o8nxJ8oMQ4Rtkmmma8naQJ9V8iemILAu+nZKCv9Tf2j2Opg/3vcw68ks/k/axpAAAL4klEQVQcm6x+i3pY/c9uHfJHrc3tbMTrEa/iM16Z29QJ//DxTp2ccvNzHN2/k+du3jfq4axOzLZW+Y32QHuo6ES3jFt0Ffzmd9IyKj15KDD8fxNN3im1e9abxku8O7y5hUpPZga/MT54cSDubptI3W9pST/v/Z7xqjnZHnnzH/O/BcQ4jn/fXyb/1ljX66P99WN3ySIa/Mv/l26+ZRQtrzhOpYHj+3y31T+3k8fpy3H+fTEIi2OLulmt83WcaHxSWZT1t0cqjW7BwHs3vZ0VqH/Be9SL33DQ4gVaXiLZhHPazonUgf8f3N+ywDskn6Pl9XLeFpp8y8+p1S3P0SdFFvuqV16/jFt0Jewa6Rz10G/7SG2tsp1X2sPH3yZXndhwFTWlyuV5v3kFuVrldY9RfrqESquLHT0G6qHe5mgPdVtBV+q28pqu9s/q7AfIl1YagFe0YrAx/N/2zR11Yp2/XEeatpfjeBa9Kx6m+kQx7opviyctC8T2HTTtNobCzvTuAfvcEGyPA+9QFwbCpknGu17lXCLq0WVWllEPzh/mdaK8WNd0TFqd+vnzh6hX7TkdWtzXb58RK+uUr80faf6Pmvjuo9mHuB75tOBx/4NmrZ+eQqv3HzO2C9YDebCOHUW7yHPkc3ufMNsKulKP7Wy3cLrC0D+G/oPDbObue/GbAz8LSSyHm2PoRt1WbEsMCWJI0MqnxPC4MfTPPliZQgMZCOu8Vs487M92tBr6N9u3iApLMmjd6hRaOPt1GmZ+9V2S3lfugn4u7lG1eeG/qAcP84tYYl4n6m61rtY/RL1qv3C3bnwLA1Rb9OL7Z/3viuT56ORRNPaVMcY9tT2M2w58wa/0FG9KDtyr6wdWfs9k78GTadam7VRsvmUhTE4Q9RDnrjKHn5t1aP87qKswbWC2OdrD3p5mO/FvXVu5pT0AqooOgUCj5gxuEXaiOCjq4ded13QlwC0IqmeO0dKhDFimeyyDT/uLezoF0ElP/Zek07Tgx0ICkMbQyy8E7+7/OpxPgKoAT1/ozzEH20OUjzGoinc3+z+IYKoT10ua+E0CQT8KvP0g+G5qUbZZWxq4RNjRVN4iP+gmez428kdom4r2CerKwu6ijDxHe6jZlu2mayu3tAdAVdEhEGjUnMEtwm5oMEM90DMsa8hq2anAXx9Uy6l4+QADwjq96wcqfxkTuFr1qJq+DMdP0o+dPZ+Wbs2gQvE553VJfrAToHpW7eMhQf9oJFBdl+z/eIr5gSzdRFxcuJlSPhhB910rPsQivpkeOtbptjmfF/JHaJsK3wrqSjEv67a5OA7aI77aA6Cq6BAQdnwJWwQkMddNLgiYAFWhnVBzp3RlBapVJwPD/0bvpTzsz/5Zv0dV7Kfp0JS6r2oKxL2cufdJoJoevLdzjuW7Rfnp+ebU6rZe9M6+UqpqJFAV59101Kra3tKIe4yOUGqS/1aCtm+F71XVbXPWD/IH8keoOML/g67sNQJQBajWCfSyM+k6DwAPgCdryGoZurIPymwvAZi1Q/+sq6LA8H8XmrF1FvXx+Uj0rvptXB9UxRC53PPoL8/7C/QmBntUKyh1lH9dn4Xi1U6mcxWw3HQErTS/nirGQ/9VwVdoDaClFbXnF9TVyRQa1qw5te7Qj+YUVFBV7nTq06EVNZfOU8QrYW+Aaq0trfwWwB3aPsJmQldiWWUe1K4ik/A+vdIeAFVFUXhFELJD6ToPHBSgKmvIahm6Cp3wBDjVBdUKKlzSzz/8fwffW2oe9uf91QfVzHcD96Dyl6OkWJc58z7jTQLGPZ0mUK2FQPk9qgWUOsr/7tKOb2yn8sYEVQPa/UDdesAsygw8DOXXVX7wPJs+MT/wjlXT+2RNX7ky4lXVBppwB9/bGuLrXybb6WrXS0Ah+7qurZA/kD9kDfEyQNUUgKwMJNYBVEMnVmEnBBoEGqGFUHMksND+ZAeqVSXzqb94AKjeC+rrg2pVRQoNM77U5KOm191HA/kJef5q1HUMea2o//ih/tdL3fsm7Te93SNzif8LUT5f/S9T8Yv9d9RIX6aSeipF24t6RPupf2P/Fek09u5Aj3Dgi1ijk5+iHkbdfMRf3Eo19bbyF7paG7ZrYnyWlb98NWZ4X+oYsE/rUdKXrGxyg652+VyRP0LrXegF+QP5Q2jBPAeo2gQjs5H4NwINAo2sCXkZCUxNI2w3XVt5LYEJwJN7VKvOii8sycP+bHsLUOX4dmwVTXiiI13TzP9EfNPr2lKfUdMp1bgHVdyT+hDNPlo3SRbnzq+zXfM2XWjg7M1GD2WwPRrpHtVa3yugLQuTqE/7q4O9w81bd6b+k1Iox+qVU4UpNMH8Wi7fz6lVt740YbX8eVZ7Letql88V+cPenrVtiS9T6bwK0ku6AqgCVHGPqoUGgonY4n/mwGr+jQSmlozYZrq2QnvUhUiz7qx+A4zUtAhdQVdW/iOvQ7xS8ye2m66teJtw8Qqgqggi4QwJYfuFjMCPwC/7gtWybjCDrqArKx3J66CrxgUKtAfyoK4PsmbC8RVAFaCKHlULDQCMAEZy0rVa1g3K0BV0ZaUjeR10BeCWNWG1HA7w5G3iVVe+/bnZpDrty96nXFbsc/eeTK1tdI+RnZNFPInjqcx1j8H7RD3UdIL2ULOT0Cl0pWYv6ErNTtCVXo6CrqAr4TOh5rrMAF1FV1foUbXoTZOvQnjZK1cuct3j9QoM9cAQlK524efqvZ3oGVa3FXSlbivoSt1WXtIVQBWgiqF/Cw0gYCJgyhc7Vsu6MAxdQVdWOpLXQVcY+pc1YbXslQ40gKoFpHhZEHLdETARMGVNWC17JWDKdYd/wD9kTVgtwz/UdIILOVzIWfkPQBWgih5VCw0gYCJgWgVMeR1AVQ1A2G66tuJtAHhq9kW8QrySY5PVsq4PukVXAFULSLFqYARMBEwrXZjX6QYB3ha6gq7MGrL6DV2paYRtp2srtyRiud1RD+fanG2NuKtmX7f4B0AVoIoeVQsNuMVBkcD8ARXtgR4j2ReslgF4agDCttO1FW8DwFOzL+JVdOMVQNUCUqwCIBwUDmqlC/M6BH41jbDNdG2FwB/dwG/WLdqjNOTFekNtxdsjf6jFBvg5/Fz2N14GqAJUQwZpAIVagGVn0rUVEph6UEYCU7cVdKVuK+hK3VbQlbqtoCt1W6noCqAKUAWoWmgAgSa6gYaDkXnShXq0B9rDrB+739BVXT+zsxOv17UVb4OeYTX7Il5FN14BVKUEaufYcFA4qJ02xHoEfjWNsL10bYXAH93ALzQr5mgP57TLNkb+ULMv/Bx+LmKSeQ5QBajW6ekyi4N/I4GpBdhIbMXbIIGp2RcJDAlMjk1Wy4hXav6EeJUXMu/J2oKuGldXPm4AJ6fc/BxH9+/kuZv3jXo4qxOzrVV+oz3QHio60S0DXUFXuppRKQ9dQVcqOtEt4xVd+SrPlJPqxEasqClVLs/7zSvI1Sqve4zy0yVUWl3s6DFQD/U2R3uo2wq6UrcVdKVuK+hK3VbQlbqtoCt1W0FX6rZS0RWG/jH0H3IIhC8cWEjyUIjdMoZo1W3FNsTQv9qQEnQFXdnFHPN6xCs1f2Kb6doK8UrdBxGv1G2loiuAKkA1JITqBjM4aHQd1JyEI0kuaA+0h6whq2X4OQDPShfyOlxYq+kEcTe6cRegClAFqFpoAIEmuoFGTngAI7WEx3bTtRVvA6BQsy/8HH4uxyarZV0fhK6iqyuAqgWkWAkVgR+B30oX5nW6wYy3ha6gK7OGrH5DV2oaYdvp2gpAEV2gkPWL9nBOu2xrr+QPgCpAFT2qFhpAAkMCk5Ou1TISMRKxlS7kdV4BCrne8A/4h6wJq+Vw/gFQtYCUSAwpbwMHhYPKmrBaDueg8jbQFXQla8JqGbpS0wkuSHFBauU/8jrEXTV/Yrvp2oq3CRevAKoAVfSoWmgACQwJTE5WVsu6QRm6gq6sdCSvg64aF4zQHn77uyVeAVQtIEUWKS+HI355GwQaBBpZE1bL0JWaTtwSMOU2hJ+rtR/bTddWvA38Q82+8A9cAMmxyWpZ1wfdoqv/H2PE/985a/1gAAAAAElFTkSuQmCC;" vertex="1" parent="1">
          <mxGeometry x="160" y="135" width="417.32" height="175" as="geometry" />
        </mxCell>
        <mxCell id="r5Sn9v23Aq8rW__LxeA--61" value="" style="html=1;shadow=0;dashed=0;align=center;verticalAlign=middle;shape=mxgraph.arrows2.arrow;dy=0.6;dx=40;notch=0;rounded=0;sketch=0;fontColor=#FFFFFF;strokeColor=#457B9D;fillColor=#FFB366;" vertex="1" parent="1">
          <mxGeometry x="640" y="160" width="80" height="50" as="geometry" />
        </mxCell>
      </root>
    </mxGraphModel>
  </diagram>
</mxfile>
